<svg xmlns="http://www.w3.org/2000/svg" viewBox="0 0 1200 760" fill="none">
  <defs>
    <linearGradient id="background" x1="88" y1="34" x2="1090" y2="748" gradientUnits="userSpaceOnUse">
      <stop stop-color="#152033"/>
      <stop offset="1" stop-color="#0A111C"/>
    </linearGradient>
    <linearGradient id="scan" x1="185" y1="287" x2="520" y2="550" gradientUnits="userSpaceOnUse">
      <stop stop-color="#6D7D90"/>
      <stop offset=".5" stop-color="#28394A"/>
      <stop offset="1" stop-color="#182535"/>
    </linearGradient>
    <linearGradient id="signal" x1="565" y1="230" x2="1107" y2="596" gradientUnits="userSpaceOnUse">
      <stop stop-color="#9AC7FF"/>
      <stop offset="1" stop-color="#72D8C0"/>
    </linearGradient>
    <radialGradient id="scanGlow" cx="0" cy="0" r="1" gradientTransform="matrix(171 0 0 130 358 403)" gradientUnits="userSpaceOnUse">
      <stop stop-color="#AFC2D8" stop-opacity=".5"/>
      <stop offset="1" stop-color="#3A4D61" stop-opacity="0"/>
    </radialGradient>
  </defs>
  <rect width="1200" height="760" rx="14" fill="url(#background)"/>
  <path d="M0 70h1200" stroke="#2C3A4D"/>
  <circle cx="29" cy="35" r="5" fill="#E7A79D"/>
  <circle cx="47" cy="35" r="5" fill="#EBCB8A"/>
  <circle cx="65" cy="35" r="5" fill="#8FCAA7"/>
  <text x="94" y="40" fill="#EEF3FA" font-family="Arial,sans-serif" font-size="14" font-weight="700">IMAGE INTELLIGENCE</text>
  <text x="827" y="39" fill="#8C9BB0" font-family="Arial,sans-serif" font-size="9" letter-spacing="1.7">KIDNEY STONE SCREENING / RESEARCH</text>
  <rect x="1092" y="22" width="79" height="26" rx="13" fill="#1E2F43" stroke="#3B5068"/>
  <text x="1105" y="39" fill="#B9D4F3" font-family="Arial,sans-serif" font-size="8" letter-spacing="1">CONCEPT</text>

  <text x="30" y="112" fill="#EFF4FC" font-family="Arial,sans-serif" font-size="19" font-weight="700">Medical image analysis</text>
  <text x="30" y="135" fill="#8998AC" font-family="Arial,sans-serif" font-size="10">Illustrative screening workflow / no clinical result shown</text>
  <rect x="25" y="157" width="541" height="430" rx="9" fill="#111B29" stroke="#2C3A4D"/>
  <text x="49" y="189" fill="#93A3B8" font-family="Arial,sans-serif" font-size="9" letter-spacing="1.5">UPLOADED IMAGE / SAMPLE VIEW</text>
  <rect x="48" y="207" width="495" height="296" rx="6" fill="#0B111B" stroke="#26364A"/>
  <rect x="58" y="217" width="475" height="276" rx="3" fill="url(#scan)"/>
  <ellipse cx="296" cy="355" rx="176" ry="126" fill="url(#scanGlow)"/>
  <ellipse cx="296" cy="356" rx="163" ry="116" stroke="#B5C4D5" stroke-opacity=".24" stroke-width="2"/>
  <ellipse cx="296" cy="356" rx="134" ry="95" stroke="#B5C4D5" stroke-opacity=".21" stroke-width="2"/>
  <ellipse cx="296" cy="356" rx="101" ry="72" stroke="#B5C4D5" stroke-opacity=".2" stroke-width="2"/>
  <path d="M295 251c-17 16-24 41-21 69 2 20 10 31 8 51-2 23-20 35-23 61-4 28 12 48 39 49 31 2 50-21 50-49 1-20-11-36-10-55 0-16 9-28 6-49-3-31-21-65-49-77Z" fill="#A9B7C5" fill-opacity=".27" stroke="#CCD6E1" stroke-opacity=".46" stroke-width="2"/>
  <path d="M292 271c-13 13-17 34-15 52 2 18 9 28 6 45-3 18-16 29-17 48-1 20 10 33 28 34 21 1 34-15 35-34 1-16-8-28-7-45 1-15 8-26 5-45-3-23-16-47-35-55Z" fill="#CED7E1" fill-opacity=".2"/>
  <path d="M273 369c21-11 41-10 60 0" stroke="#DDE5EF" stroke-opacity=".35" stroke-width="2"/>
  <circle cx="310" cy="373" r="17" fill="#9BC8FF" fill-opacity=".12" stroke="#A8D1FF" stroke-width="2" stroke-dasharray="4 4"/>
  <circle cx="310" cy="373" r="3" fill="#C0DFFF"/>
  <path d="M324 364l45-34" stroke="#A8D1FF" stroke-width="1.5"/>
  <rect x="367" y="315" width="130" height="36" rx="5" fill="#17283B" stroke="#45617E"/>
  <text x="379" y="330" fill="#B8D3F2" font-family="Arial,sans-serif" font-size="7" letter-spacing=".7">FEATURE REGION</text>
  <text x="379" y="343" fill="#8298B4" font-family="Arial,sans-serif" font-size="7">illustrative overlay</text>
  <path d="M81 228h15M81 228v15M510 228h-15M510 228v15M81 481h15M81 481v-15M510 481h-15M510 481v-15" stroke="#A8BED5" stroke-width="1.5"/>
  <text x="49" y="530" fill="#8191A7" font-family="Arial,sans-serif" font-size="8" letter-spacing="1">IMAGE PROCESSING</text>
  <rect x="49" y="542" width="495" height="4" rx="2" fill="#253449"/>
  <rect x="49" y="542" width="308" height="4" rx="2" fill="url(#signal)"/>
  <text x="49" y="566" fill="#A8B5C7" font-family="Arial,sans-serif" font-size="9">Sample visualization only / not a diagnostic result</text>

  <rect x="585" y="157" width="590" height="430" rx="9" fill="#111B29" stroke="#2C3A4D"/>
  <text x="610" y="189" fill="#EFF4FC" font-family="Arial,sans-serif" font-size="13" font-weight="700">Analysis pipeline</text>
  <text x="610" y="210" fill="#8998AC" font-family="Arial,sans-serif" font-size="9" letter-spacing="1.2">COMPUTER VISION / MACHINE LEARNING</text>
  <rect x="610" y="233" width="540" height="76" rx="6" fill="#172436" stroke="#30445B"/>
  <circle cx="647" cy="271" r="17" fill="#223954"/>
  <path d="M640 271h14M647 264v14" stroke="#A9CFFF" stroke-width="1.5" stroke-linecap="round"/>
  <text x="678" y="263" fill="#E5EDF7" font-family="Arial,sans-serif" font-size="10" font-weight="700">Image input</text>
  <text x="678" y="282" fill="#8494AA" font-family="Arial,sans-serif" font-size="9">Secure upload / medical image</text>
  <rect x="610" y="326" width="540" height="76" rx="6" fill="#172436" stroke="#30445B"/>
  <circle cx="647" cy="364" r="17" fill="#223954"/>
  <path d="M639 364h16M647 356v16M641 358l12 12M653 358l-12 12" stroke="#A9CFFF" stroke-width="1.2" stroke-linecap="round"/>
  <text x="678" y="356" fill="#E5EDF7" font-family="Arial,sans-serif" font-size="10" font-weight="700">Image processing &amp; feature analysis</text>
  <text x="678" y="375" fill="#8494AA" font-family="Arial,sans-serif" font-size="9">Computer vision prepares patterns for model review</text>
  <rect x="610" y="419" width="540" height="76" rx="6" fill="#172436" stroke="#30445B"/>
  <circle cx="647" cy="457" r="17" fill="#223954"/>
  <circle cx="642" cy="457" r="3" fill="#9BC7FF"/>
  <circle cx="652" cy="450" r="3" fill="#9BC7FF"/>
  <circle cx="653" cy="464" r="3" fill="#73D8BF"/>
  <path d="m644 455 6-4m-6 8 7 4m1-2-1-8" stroke="#8DB8EA" stroke-width="1"/>
  <text x="678" y="449" fill="#E5EDF7" font-family="Arial,sans-serif" font-size="10" font-weight="700">Model prediction</text>
  <text x="678" y="468" fill="#8494AA" font-family="Arial,sans-serif" font-size="9">AI-assisted screening output / professional review</text>
  <rect x="610" y="514" width="540" height="49" rx="5" fill="#1B2B3C" stroke="#3B536B"/>
  <circle cx="629" cy="538" r="4" fill="#9BC7FF"/>
  <text x="643" y="542" fill="#B7C6D8" font-family="Arial,sans-serif" font-size="9">Prediction result saved for secure review</text>

  <rect x="25" y="610" width="1150" height="102" rx="8" fill="#132032" stroke="#2D4056"/>
  <text x="49" y="637" fill="#8395AB" font-family="Arial,sans-serif" font-size="8" letter-spacing="1.4">AI-ASSISTED SCREENING / RESEARCH SUPPORT</text>
  <text x="49" y="670" fill="#EFF4FC" font-family="Arial,sans-serif" font-size="14" font-weight="700">Technology can support a faster preliminary review.</text>
  <text x="49" y="692" fill="#A2B0C2" font-family="Arial,sans-serif" font-size="9">This illustrative platform is not a substitute for professional medical diagnosis or treatment decisions.</text>
  <rect x="1020" y="640" width="125" height="36" rx="18" fill="#1A2E40" stroke="#3D5A71"/>
  <text x="1038" y="662" fill="#B9D5F0" font-family="Arial,sans-serif" font-size="8" letter-spacing=".8">HUMAN REVIEW</text>
</svg>
